<?xml version="1.0" standalone="no"?>
<!DOCTYPE svg PUBLIC "-//W3C//DTD SVG 20010904//EN"
 "http://www.w3.org/TR/2001/REC-SVG-20010904/DTD/svg10.dtd">
<svg version="1.0" xmlns="http://www.w3.org/2000/svg"
 width="836.000000pt" height="980.000000pt" viewBox="0 0 836.000000 980.000000"
 preserveAspectRatio="xMidYMid meet">
<metadata>
Created by potrace 1.15, written by Peter Selinger 2001-2017
</metadata>
<g transform="translate(0.000000,980.000000) scale(0.100000,-0.100000)"
fill="#000000" stroke="none">
<path d="M5950 9793 c-683 -112 -1206 -441 -1563 -983 -151 -230 -287 -562
-341 -830 -32 -160 -49 -351 -40 -462 6 -87 7 -87 37 -94 66 -14 315 13 472
53 685 171 1271 803 1449 1563 41 175 51 266 51 460 0 201 -9 301 -28 299 -7
-1 -23 -4 -37 -6z"/>
<path d="M5845 7554 c-231 -34 -399 -86 -741 -227 -365 -150 -528 -196 -765
-217 -90 -7 -153 -7 -220 0 -165 19 -240 45 -504 177 -327 164 -546 213 -953
213 -485 0 -818 -68 -1157 -235 -247 -122 -439 -259 -641 -460 -485 -482 -781
-1148 -845 -1903 -15 -179 -7 -605 15 -792 115 -976 492 -2048 1012 -2878 395
-630 840 -1050 1252 -1182 139 -45 252 -56 424 -42 279 22 461 70 803 212 392
163 494 189 765 197 348 10 567 -40 952 -218 377 -174 543 -215 779 -189 236
26 458 106 693 252 370 229 761 625 1088 1103 292 426 522 929 544 1191 l7 70
-143 83 c-622 365 -1015 848 -1165 1435 -47 184 -65 328 -65 523 0 314 59 570
196 845 172 349 454 666 883 995 7 5 -26 38 -212 215 -354 334 -576 499 -848
627 -186 87 -399 152 -619 186 -100 16 -467 29 -535 19z"/>
</g>
</svg>
