<?xml version="1.0" standalone="no"?>
<!DOCTYPE svg PUBLIC "-//W3C//DTD SVG 20010904//EN"
 "http://www.w3.org/TR/2001/REC-SVG-20010904/DTD/svg10.dtd">
<svg version="1.0" xmlns="http://www.w3.org/2000/svg"
 width="200.000000pt" height="200.000000pt" viewBox="0 0 200.000000 200.000000"
 preserveAspectRatio="xMidYMid meet">
<metadata>
Created by potrace 1.15, written by Peter Selinger 2001-2017
</metadata>
<g transform="translate(0.000000,200.000000) scale(0.100000,-0.100000)"
fill="#000000" stroke="none">
<path d="M892 1849 c-93 -11 -237 -59 -316 -105 -188 -111 -318 -268 -385
-470 -101 -301 -31 -625 183 -851 176 -186 375 -273 626 -273 244 0 449 87
616 262 158 165 234 358 234 596 0 244 -88 444 -273 618 -179 170 -436 253
-685 223z m-29 -71 c-6 -7 -40 -50 -76 -95 -36 -44 -82 -111 -104 -147 l-38
-66 -143 0 -144 0 53 61 c65 75 120 122 202 172 92 56 279 112 250 75z m117
-148 l0 -160 -130 0 c-72 0 -130 4 -130 9 0 34 224 311 251 311 5 0 9 -72 9
-160z m185 20 c39 -60 95 -162 95 -175 0 -3 -49 -5 -110 -5 l-110 0 0 162 0
162 41 -39 c22 -22 60 -69 84 -105z m71 119 c102 -31 203 -84 263 -136 55 -48
131 -138 131 -154 0 -5 -62 -9 -140 -9 l-140 0 -26 53 c-31 60 -92 153 -141
213 -51 63 -48 64 53 33z m-606 -385 c0 -3 -9 -40 -19 -82 -11 -43 -22 -104
-26 -137 -3 -33 -8 -75 -11 -92 l-5 -33 -181 0 -181 0 5 63 c6 67 49 206 79
256 l19 31 160 0 c88 0 160 -3 160 -6z m350 -169 l0 -175 -175 0 c-96 0 -175
1 -175 3 0 57 50 313 66 339 3 4 68 8 145 8 l139 0 0 -175z m344 153 c29 -101
47 -185 52 -250 l7 -78 -172 0 -171 0 0 175 0 175 139 0 c135 0 139 -1 145
-22z m390 -26 c36 -71 65 -166 72 -238 l7 -64 -175 0 -175 0 -7 78 c-6 69 -34
209 -51 255 -7 16 4 17 149 17 l156 0 24 -48z m-1140 -404 c3 -13 6 -39 6 -58
0 -31 26 -168 45 -243 l7 -28 -163 3 -163 3 -28 58 c-34 68 -68 193 -68 249
l0 38 179 0 c177 0 179 0 185 -22z m404 -150 l-3 -173 -137 -3 -137 -3 -20 65
c-20 65 -34 138 -46 234 l-6 52 176 0 175 0 -2 -172z m402 131 c0 -50 -36
-230 -55 -276 l-14 -33 -135 0 -136 0 0 175 0 175 170 0 170 0 0 -41z m410 8
c0 -50 -37 -184 -70 -254 l-29 -63 -149 0 c-82 0 -151 2 -153 5 -3 2 5 44 17
93 12 48 26 125 29 170 l8 82 173 0 174 0 0 -33z m-1104 -439 c32 -64 113
-185 156 -233 17 -20 28 -38 25 -41 -18 -18 -225 67 -317 129 -56 39 -180 165
-180 183 0 11 28 14 145 14 l145 0 26 -52z m292 -115 c2 -107 -1 -163 -8 -163
-22 0 -128 122 -177 205 -77 128 -78 126 65 123 l117 -3 3 -162z m302 156 c0
-30 -91 -180 -144 -236 -100 -107 -96 -111 -96 82 l0 165 120 0 c80 0 120 -4
120 -11z m350 2 c0 -17 -76 -106 -135 -159 -68 -60 -162 -112 -259 -141 -37
-12 -70 -21 -71 -21 -2 0 24 42 58 93 34 51 77 125 96 165 l35 72 138 0 c76 0
138 -4 138 -9z"/>
</g>
</svg>
